# xmcd
#
# Track frame offsets:
#	150
#	15152
#	29592
#	43252
#	56950
#	71157
#	85037
#	99065
#	112885
#	128607
#	142340
#	155690
#	169810
#	182975
#	196237
#	210230
#	222437
#	235557
#	249602
#
# Disc length: 3523 seconds
#
# Revision: 1
# Processed by: cddbd v1.4PL0 Copyright (c) Steve Scherf et al.
# Submitted via: audiograbber 1.81.01
#
DISCID=0a0dc113
DTITLE=Various Artist - Old-Time Music of West Virginia, Vol. 2
DYEAR=1900
DGENRE=
TTITLE0=Worried Blues
TTITLE1=Your Blue Eyes Run Me Crazy
TTITLE2=Richmond Polka
TTITLE3=Black Dog
TTITLE4=Ida Red
TTITLE5=Prison Sorrows
TTITLE6=Steel Driving Man
TTITLE7=Goodbye Maggie Goodbye Darling
TTITLE8=Last Scene of the Titanic
TTITLE9=The Fun's All Over
TTITLE10=I Wonder How the Old Folks Are at Home
TTITLE11=Cocaine
TTITLE12=Cripple Creek
TTITLE13=Moatsville Blues
TTITLE14=Rock House Gamblers
TTITLE15=Rickett's Hornpipe
TTITLE16=Little Foot Prints
TTITLE17=Killin' Blues
TTITLE18=Boarding House Bells Are Ringing
EXTD=
EXTT0=
EXTT1=
EXTT2=
EXTT3=
EXTT4=
EXTT5=
EXTT6=
EXTT7=
EXTT8=
EXTT9=
EXTT10=
EXTT11=
EXTT12=
EXTT13=
EXTT14=
EXTT15=
EXTT16=
EXTT17=
EXTT18=
PLAYORDER=
